#!OML:ASF H:\ManfredETheater\Project 1\Capture day 1\Session 1\subject.ASF
:FULLY-SPECIFIED
:DEGREES
152
root 9.29064 16.2713 -27.9956 -189.461 49.4931 -183.288
lowerback 12.4415 0.277953 -1.32663
upperback 0.828129 0.43932 2.4568
thorax -6.14229 0.326824 3.26167
lowerneck -16.9126 -2.94139 -3.65279
upperneck 17.2893 -2.97353 -0.0330464
head 8.21341 -1.61095 0.238672
rclavicle 5.67095e-014 -3.02153e-014
rhumerus -51.7446 10.8054 -93.3073
rradius 109.811
rwrist -3.14815
rhand -20.4922 13.0924
rfingers 7.12502
rthumb 5.86466 -16.8064
lclavicle 5.67095e-014 -3.02153e-014
lhumerus -66.1606 -6.96952 98.0126
lradius 107.309
lwrist 14.7273
lhand -20.8197 -9.32472
lfingers 7.12502
lthumb 5.54838 20.5826
rfemur -9.22195 -9.3711 17.0622
rtibia 90.8327
rfoot -11.0725 -18.2387
rtoes -20.866
lfemur -37.0613 -1.71294 -17.192
ltibia 56.2008
lfoot -8.74688 -4.78133
ltoes -8.39793
153
root 9.51738 16.215 -28.2664 -190.336 49.4801 -184.093
lowerback 12.5716 0.166219 -1.75478
upperback 0.942535 0.206306 2.15039
thorax -6.07767 0.216443 3.22122
lowerneck -17.3277 -2.83651 -3.54088
upperneck 17.6481 -2.85705 0.0549968
head 8.40468 -1.54014 0.256619
rclavicle 2.01984e-014 -7.95139e-016
rhumerus -51.2547 9.28929 -93.5124
rradius 107.798
rwrist -2.76779
rhand -20.7115 12.8982
rfingers 7.12502
rthumb 5.65287 -17.0064
lclavicle 2.01984e-014 -7.95139e-016
lhumerus -64.3991 -7.7569 97.6295
lradius 106.359
lwrist 15.3173
lhand -20.7388 -9.28307
lfingers 7.12502
lthumb 5.62659 20.6222
rfemur -11.7297 -9.70029 16.444
rtibia 92.1759
rfoot -12.0407 -17.738
rtoes -22.0298
lfemur -36.7355 -1.47832 -18.054
ltibia 58.5526
lfoot -10.5501 -4.62379
ltoes -8.51701
154
root 9.73991 16.1683 -28.5321 -190.869 49.5901 -184.447
lowerback 12.6505 0.0719246 -1.80766
upperback 1.07957 0.058992 1.91594
thorax -5.96564 0.140099 3.02806
lowerneck -17.6998 -2.76568 -3.48991
upperneck 17.9731 -2.78305 0.182241
head 8.58031 -1.48881 0.294003
rclavicle -3.25386e-014 9.54166e-015
rhumerus -50.8254 7.71234 -93.6664
rradius 105.787
rwrist -2.36401
rhand -20.9479 12.6913
rfingers 7.12502
rthumb 5.4246 -17.2193
lclavicle -3.25386e-014 9.54166e-015
lhumerus -62.4331 -8.55399 97.1382
lradius 105.23
lwrist 15.6685
lhand -20.7523 -9.21812
lfingers 7.12502
lthumb 5.61346 20.6875
rfemur -14.2918 -9.91111 16.3457
rtibia 93.0566
rfoot -12.8771 -17.3317
rtoes -23.2823
lfemur -36.2477 -1.1202 -18.5353
ltibia 60.6543
lfoot -12.2858 -4.58351
ltoes -8.65934
155
root 9.95894 16.1299 -28.7942 -191.163 49.7691 -184.435
lowerback 12.7219 -0.0155728 -1.57059
upperback 1.23106 -0.029889 1.75502
thorax -5.83923 0.0875846 2.7378
lowerneck -17.9734 -2.7236 -3.48698
upperneck 18.2406 -2.74032 0.309485
head 8.72101 -1.45484 0.337469
rclavicle -8.57383e-014 3.97569e-015
rhumerus -50.5226 6.16992 -93.7542
rradius 103.901
rwrist -2.00047
rhand -21.1229 12.4954
rfingers 7.12502
rthumb 5.25567 -17.4195
lclavicle -8.57383e-014 3.97569e-015
lhumerus -60.3482 -9.25441 96.5623
lradius 104.002
lwrist 15.5593
lhand -20.8518 -9.10623
lfingers 7.12502
lthumb 5.51744 20.8019
rfemur -16.8023 -10.0513 16.6569
rtibia 93.4654
rfoot -13.5722 -17.0398
rtoes -24.6096
lfemur -35.5565 -0.714343 -18.7194
ltibia 62.5054
lfoot -13.9589 -4.59446
ltoes -8.78227
156
root 10.1748 16.0979 -29.0529 -191.355 49.9525 -184.229
lowerback 12.817 -0.105534 -1.2099
upperback 1.37709 -0.0984339 1.66041
thorax -5.73446 0.0448205 2.4445
lowerneck -18.1153 -2.6927 -3.51343
upperneck 18.4511 -2.69826 0.386002
head 8.81903 -1.42809 0.370735
rclavicle -6.55368e-015 -1.27222e-014
rhumerus -50.4013 4.78062 -93.7791
rradius 102.254
rwrist -1.71271
rhand -21.2276 12.3097
rfingers 7.12502
rthumb 5.1546 -17.6077
lclavicle -6.55368e-015 -1.27222e-014
lhumerus -58.253 -9.74034 95.969
lradius 102.776
lwrist 14.8706
lhand -21.0813 -8.95787
lfingers 7.12502
lthumb 5.29589 20.956
rfemur -19.2025 -10.1651 17.191
rtibia 93.4281
rfoot -14.183 -16.8485
rtoes -25.7799
lfemur -34.6702 -0.336567 -18.7586
ltibia 64.1124
lfoot -15.544 -4.58264
ltoes -8.80738
157
root 10.3884 16.0708 -29.3074 -191.603 50.0556 -184.059
lowerback 12.9426 -0.20743 -0.930902
upperback 1.49934 -0.191391 1.60623
thorax -5.67142 -0.0062406 2.24534
lowerneck -18.133 -2.65746 -3.54994
upperneck 18.6154 -2.6331 0.382285
head 8.87791 -1.39949 0.38324
rclavicle 3.24578e-014 7.95139e-016
rhumerus -50.4976 3.66203 -93.7475
rradius 100.956
rwrist -1.55732
rhand -21.2388 12.1576
rfingers 7.12502
rthumb 5.14381 -17.7599
lclavicle 3.24578e-014 7.95139e-016
lhumerus -56.2348 -9.9283 95.4043
lradius 101.667
lwrist 13.6326
lhand -21.3703 -8.78832
lfingers 7.12502
lthumb 5.01682 21.1323
rfemur -21.4955 -10.3234 17.7336
rtibia 92.9878
rfoot -14.725 -16.7456
rtoes -26.8178
lfemur -33.6317 -0.0794635 -18.839
ltibia 65.488
lfoot -17.0249 -4.49455
ltoes -8.73217
158
root 10.6008 16.0476 -29.5578 -192.04 49.9936 -184.127
lowerback 13.0918 -0.329937 -0.894966
upperback 1.59482 -0.346345 1.56067
thorax -5.6466 -0.0819003 2.20475
lowerneck -18.083 -2.61246 -3.58203
upperneck 18.7593 -2.53679 0.288677
head 8.91596 -1.3655 0.369404
rclavicle 6.0005e-014 1.98785e-014
rhumerus -50.7944 2.87471 -93.6744
rradius 100.07
rwrist -1.56852
rhand -21.1343 12.0599
rfingers 7.12502
rthumb 5.24468 -17.8552
lclavicle 6.0005e-014 1.98785e-014
lhumerus -54.3513 -9.79938 94.9137
lradius 100.794
lwrist 12.034
lhand -21.6784 -8.59799
lfingers 7.12502
lthumb 4.71932 21.3294
rfemur -23.6737 -10.5807 18.0887
rtibia 92.1844
rfoot -15.2553 -16.6899
rtoes -27.7056
lfemur -32.4719 -0.0163862 -19.1354
ltibia 66.646
lfoot -18.3897 -4.29423
ltoes -8.67731
159
root 10.8124 16.0278 -29.8039 -192.555 49.7635 -184.344
lowerback 13.2408 -0.486038 -1.04965
upperback 1.65808 -0.573383 1.53248
thorax -5.6506 -0.18872 2.30414
lowerneck -18.0271 -2.55021 -3.59722
upperneck 18.8985 -2.40366 0.119789
head 8.94966 -1.32121 0.331996
rclavicle 5.79908e-014 7.95139e-016
rhumerus -51.2645 2.46605 -93.5886
rradius 99.6213
rwrist -1.75823
rhand -20.9459 12.0134
rfingers 7.12502
rthumb 5.42662 -17.8971
lclavicle 5.79908e-014 7.95139e-016
lhumerus -52.6307 -9.39232 94.5221
lradius 100.254
lwrist 10.4327
lhand -21.9415 -8.39527
lfingers 7.12502
lthumb 4.46529 21.5377
rfemur -25.7754 -10.921 18.3263
rtibia 91.0342
rfoot -15.7702 -16.6884
rtoes -28.4003
lfemur -31.2723 -0.150058 -19.5891
ltibia 67.621
lfoot -19.6296 -4.00664
ltoes -8.69578
